<svg width="212" height="32" viewBox="0 0 212 32" fill="none" xmlns="http://www.w3.org/2000/svg">
<g clip-path="url(#clip0_4670_1024)">
<path d="M118.814 21.5418H118.332V11.5087V1.4756H118.814V11.5087V21.5418Z" fill="black"/>
<path d="M58.7532 18.806V17.6193C58.1881 18.2783 57.2833 19.0505 55.6815 19.0505C53.8352 19.0505 52.3087 17.8825 52.3087 15.885C52.3087 13.4543 54.5888 12.5688 56.8122 12.3236L57.6791 12.2296C58.5273 12.1537 58.8285 11.6833 58.8285 11.1182C58.8285 10.4206 58.1695 9.91224 57.1707 9.91224C56.0213 9.91224 54.9093 10.7411 54.4948 11.4008L53.1756 9.83695C53.9858 8.78089 55.4183 8.04661 57.2833 8.04661C59.6953 8.04661 61.0899 9.28994 61.0899 11.3628V18.806H58.7532ZM58.7345 13.7748L57.152 13.9633C55.7761 14.1332 54.5701 14.6223 54.5701 15.791C54.5701 16.6199 55.2864 17.1855 56.2092 17.1855C57.3026 17.1855 58.2068 16.4693 58.7725 15.753V13.7748H58.7345Z" fill="black"/>
<path d="M65.4788 18.8062H63.1608V8.29142H65.4788V9.47875C66.3077 8.72452 67.5517 8.04623 68.9082 8.04623C70.1522 8.04623 71.8473 8.76313 71.8473 11.3251V18.8062H69.5299V11.9281C69.5299 10.8913 69.0968 10.0058 68.0227 10.0058C67.1372 10.0058 66.0065 10.7594 65.4788 11.2498V18.8062Z" fill="black"/>
<path d="M80.0034 8.29148H82.3208V18.8063H79.9281V17.6756C79.2872 18.2786 78.2511 19.0509 76.8938 19.0509C75.5372 19.0509 73.653 18.3346 73.653 15.6974V8.29148H75.971V14.9431C75.971 16.1678 76.4987 17.016 77.5914 17.016C78.4956 17.016 79.3438 16.431 80.0034 15.6974V8.29148Z" fill="black"/>
<path d="M87.198 18.8062H84.88V4.97524L87.198 2.67651V18.8062Z" fill="black"/>
<path d="M90.966 3.5617C91.7569 3.5617 92.4352 4.22069 92.4352 5.03091C92.4352 5.84177 91.7569 6.52007 90.966 6.52007C90.1551 6.52007 89.4768 5.84177 89.4768 5.03091C89.4768 4.22069 90.1551 3.5617 90.966 3.5617ZM92.172 18.8059H89.76V8.29109H92.172V18.8059Z" fill="black"/>
<path d="M99.519 10.2133H97.3142V18.8065H94.9968V10.2133H93.5836V8.29167H94.9968V6.12422C94.9968 4.39052 96.1082 2.82672 98.2943 2.82672C99.3117 2.82672 100.159 3.10923 100.668 3.37308L99.9334 5.18272C99.6129 4.99417 99.1232 4.80561 98.6521 4.80561C97.9172 4.80561 97.3142 5.35133 97.3142 6.25615V8.29167H100.065L99.519 10.2133Z" fill="black"/>
<path d="M102.269 14.1707C102.288 15.8665 103.512 17.0725 104.964 17.0725C106.056 17.0725 107.187 16.3376 107.677 15.452L109.127 16.8086C108.28 18.0519 106.64 19.0507 104.737 19.0507C101.741 19.0507 99.8757 16.7893 99.8757 13.5484C99.8757 10.4208 101.892 8.04616 104.812 8.04616C107.601 8.04616 109.561 9.87382 109.448 14.1707H102.269ZM107.017 12.3991C107.017 11.1184 106.207 9.91243 104.794 9.91243C103.438 9.91243 102.382 11.1931 102.344 12.3991H107.017Z" fill="black"/>
<path d="M39.0094 18.8062H36.4842V4.21201H39.2166L43.5129 11.392H43.5509L47.8279 4.21201H50.5037V18.8062H47.9598V8.47032H47.9225L43.4936 15.8196L39.0467 8.47032H39.0094V18.8062Z" fill="black"/>
<path d="M14.5938 5.12468V21.5427L18.242 17.8938V1.47579L14.5938 5.12468Z" fill="#00A758"/>
<path d="M7.29706 21.5425L10.9453 17.8936V1.4756L7.29706 5.12448V21.5425Z" fill="#00A758"/>
<path d="M0 21.5425L3.64824 17.8936V1.4756L0 5.12448V21.5425Z" fill="#00A758"/>
<path d="M110.737 8.04617C111.453 8.04346 112.036 8.62125 112.037 9.33426C112.04 10.0457 111.465 10.6272 110.749 10.6327C110.038 10.6348 109.454 10.0554 109.452 9.34513C109.448 8.63157 110.028 8.04943 110.737 8.04617ZM110.755 10.4388C111.348 10.435 111.793 9.95388 111.792 9.33426C111.786 8.7152 111.337 8.23732 110.743 8.24004C110.142 8.24167 109.696 8.72443 109.7 9.3435C109.703 9.96365 110.151 10.441 110.755 10.4388ZM110.248 8.5827L110.827 8.57998C111.175 8.57781 111.347 8.71737 111.35 9.00192C111.35 9.24629 111.197 9.42441 110.961 9.42441L111.393 10.0918H111.131L110.705 9.42495L110.499 9.42604L110.5 10.0978H110.255L110.248 8.5827ZM110.499 9.23326L110.793 9.23054C110.981 9.23 111.103 9.19144 111.103 8.99541C111.103 8.82272 110.946 8.77167 110.791 8.7733H110.496L110.499 9.23326Z" fill="black"/>
<path d="M205.873 12.8554C206.589 12.8527 207.172 13.4306 207.173 14.1438C207.176 14.8554 206.601 15.4371 205.885 15.4425C205.174 15.4447 204.589 14.8651 204.588 14.1547C204.584 13.4409 205.163 12.8586 205.873 12.8554ZM205.891 15.2486C206.484 15.2448 206.929 14.7636 206.928 14.1438C206.922 13.5246 206.473 13.0466 205.879 13.0493C205.277 13.0509 204.831 13.5338 204.835 14.153C204.838 14.7733 205.287 15.2508 205.891 15.2486ZM205.384 13.392L205.963 13.3893C206.311 13.3872 206.483 13.5268 206.486 13.8114C206.486 14.0558 206.333 14.234 206.097 14.234L206.529 14.9015H206.267L205.84 14.2345L205.635 14.2356L205.636 14.9075H205.39L205.384 13.392ZM205.635 14.0428L205.928 14.0401C206.116 14.0395 206.239 14.0009 206.239 13.8049C206.239 13.6321 206.082 13.5811 205.926 13.5827H205.631L205.635 14.0428Z" fill="#0000C1"/>
<path d="M174.47 0.1157C172.211 2.04942 171.22 3.71426 169.585 6.58334C170.087 7.49697 170.532 8.53716 170.546 9.70662L171.437 8.32749C173.075 5.8256 175.45 2.67081 178.757 1.17436C178.757 1.17436 178.822 1.22324 178.826 1.21727L178.803 1.33242C175.591 3.56869 171.649 11.34 170.881 12.5914C173.26 11.6871 175.244 9.68435 176.42 11.1922L176.691 10.755C176.851 10.755 177.675 10.7517 177.857 10.7517L175.995 14.0591C175.86 14.4698 176.023 15.1096 176.867 14.12L177.322 13.5708C178.45 12.0999 178.789 11.5029 179.395 11.0879C179.737 10.7425 180.927 10.4394 181.158 11.1249L181.298 11.479C182.074 11.1091 182.815 10.3856 183.655 10.9309C183.914 11.2042 184.274 11.4334 183.798 12.4176C183.3 13.1998 183.389 13.0852 182.888 13.9005C182.48 14.5333 182.633 15.6322 184.398 13.6751C185.499 12.2232 186.537 10.1173 188.841 10.7707C189.195 10.9983 189.336 11.1585 189.245 11.5029C189.157 11.7088 188.805 11.8245 188.581 11.7191C188.259 11.5752 188.401 10.8652 187.574 11.3975C186.901 12.0966 186.252 13.1889 186.004 13.806C185.823 14.2661 185.892 14.6555 186.375 14.8136C186.983 14.8554 187.451 14.4871 187.88 14.0287C189.389 12.8294 190.545 10.2596 192.872 10.7636C194.032 11.1379 193.304 12.5159 194.697 11.6957C195.907 11.0249 196.363 10.4627 197.9 10.7995C198.194 10.9603 198.452 11.2096 198.429 11.5752C198.372 11.8033 198.292 11.8625 198.084 11.9467C197.408 12.1531 197.867 10.9728 196.926 11.4258C196.353 11.7951 195.963 12.5159 195.529 13.3074C194.848 14.3649 195.163 15.5306 196.876 14.3084C197.786 13.6512 198.094 13.2612 198.471 12.8587C201.789 9.30738 201.986 7.09773 205.568 3.87559C206.926 2.41552 209.01 2.29168 207.791 4.10753C207.62 4.31502 207.587 4.36988 207.109 4.87613C206.089 5.8935 205.443 6.25852 204.163 7.04233C203.252 8.34052 202.696 9.48609 201.818 10.9108L201.546 11.4709C202.285 11.0108 203.007 10.6757 203.283 10.5931C205.101 10.1499 205.004 11.6387 204.731 12.076C203.868 13.3389 202.332 13.4491 201.028 13.7071C202.59 14.7299 203.34 15.9412 204.642 17.9619C206.429 18.2536 207.668 18.7055 208.335 19.0232C209.183 19.4551 209.689 19.7516 210.24 20.2063C212.679 22.6701 209.788 24.1851 206.722 22.1215C205.343 21.0743 204.926 20.4127 203.663 18.5849C198.319 17.8788 191.868 18.0466 187.605 18.5757L187.512 18.4855C190.852 17.5778 197.984 17.077 203.016 17.6962C202.416 16.6903 201.098 14.083 200.32 13.8598C199.948 14.3997 199.434 15.4002 199.434 15.4002H197.83C198.305 14.4812 199.047 13.2357 199.431 12.3856C198.543 13.3736 197.825 14.1433 196.946 14.7767C195.449 15.7348 194.737 15.4176 194.232 14.9173C193.769 14.1629 194.199 13.1482 194.448 12.3036C193.974 12.3872 194.052 12.668 193.487 12.5366C193.012 13.5474 192.785 14.133 192.009 14.7642C190.707 15.756 189.653 15.4627 189.213 14.8006C189.04 14.3318 188.992 14.1357 189.193 13.2319C188.158 14.2324 186.904 15.9097 185.232 15.2079C184.772 14.9798 184.668 14.5692 184.627 14.1835C184.628 14.1688 184.662 13.9956 184.72 13.8359C183.479 15.2938 182.164 15.8044 181.416 15.0298C180.887 14.4019 182.025 12.8853 182.287 12.3791L182.41 12.1629C182.9 11.4274 181.927 11.6371 181.769 11.7528C181.174 11.9608 180.661 12.8114 180.207 13.6496L179.276 15.4002H177.753C178.401 14.2074 179.061 13.1574 179.675 11.9782C179.71 11.8321 179.73 11.3503 179.181 11.7414C178.953 12.0504 178.644 12.441 178.076 13.1998C177.637 13.7859 176.416 15.7044 175.247 15.435C174.719 15.253 174.678 15.1183 174.604 14.8201C174.574 14.7299 174.643 14.5485 174.578 14.6121C174.034 15.076 173.416 15.4426 172.635 15.353C172.213 15.3378 171.823 14.9575 171.746 14.5724C171.614 13.8223 171.986 13.0254 172.439 12.3997L172.278 12.4453C171.823 12.6892 171.134 12.863 170.633 13.0254C170.155 13.7604 169.761 14.6273 169.292 15.4002H167.574L168.686 13.2172C167.978 13.2221 166.966 12.9722 166.51 12.724C165.644 14.2851 164.389 15.2981 162.765 15.6023C161.369 15.8657 159.993 15.1618 158.981 14.5654C157.384 15.8331 154.315 15.9374 156.138 13.4785C156.456 12.9722 156.079 13.5599 156.512 12.8685C156.756 12.4823 156.671 12.6637 156.853 12.3199C157.468 11.4915 156.309 10.8652 155.035 12.9804C154.467 13.8761 154.25 14.1824 153.534 15.4002H152.187C152.864 14.2177 153.546 13.1346 154.207 11.9538C154.434 11.5849 154.248 11.0016 153.507 11.8185L153.382 11.9782C152.949 12.5295 152.003 13.8179 151.389 14.6115C150.182 16.0363 148.496 15.391 149.335 13.8744C149.701 13.1868 149.722 13.2085 149.859 12.9337C150.043 12.6007 150.12 12.4502 150.176 12.3247C151.008 11.0271 149.279 11.2422 147.961 13.7886L147.052 15.4002H145.627C145.627 15.4002 147.382 12.3948 148.179 10.9255L147.88 11.1341C147.371 11.5963 146.808 11.963 146.127 11.9364C145.828 13.3399 145.123 14.1444 144.622 14.5833C143.367 15.6658 142.405 15.3378 142.036 15.1199C141.685 14.8136 141.55 14.4317 141.529 13.9945C141.574 12.9489 142.17 12.2824 142.785 11.4529C142.328 11.5909 141.733 11.5958 141.185 11.8028C140.516 13.0445 137.702 19.492 135.701 22.41C131.672 28.0612 126.865 28.8847 125.359 27.4002C124.266 26.0335 125.49 23.0965 128.016 19.807C130.522 16.7511 134.632 13.7799 139.376 11.9608C141.286 8.60885 143.574 5.51762 146.448 2.75772C144.985 3.49645 142.26 3.41606 141.133 2.42421C141.485 4.58824 139.71 6.88643 137.744 7.5817C139.569 6.22158 141.163 4.3601 140.696 2.17326C140.418 1.81042 140.237 1.85604 140.075 1.37642C140.003 0.758824 140.576 0.84682 140.832 1.57848C141.385 2.37859 142.566 2.83323 143.94 2.89298C145.68 2.85333 146.686 2.35577 147.863 1.46876L147.931 1.62791C145.012 4.36608 142.103 9.82884 141.446 11.3421C143.507 10.7169 145.153 10.3427 145.635 10.9825C145.93 11.1982 145.876 11.3736 146.188 11.5523C146.853 11.7783 148.292 10.3747 149.178 9.20255C150.773 7.20528 151.495 4.6594 154.774 2.81258C155.344 2.54589 156.147 2.85333 155.544 3.86255C154.977 4.78161 153.106 6.3476 152.077 7.03689C151.241 7.60071 150.416 9.61156 149.348 11.1955C150.215 10.8125 152.492 9.97875 151.687 12.0331C151.551 12.3546 151.097 13.2036 150.689 13.8462C150.278 14.3291 150.51 15.039 151.317 13.9923C151.51 13.7636 152.19 12.8125 152.48 12.4535C153.379 11.3372 153.948 10.4198 155.14 10.825C155.449 10.9972 155.492 11.4459 155.475 11.7761C155.887 11.4426 156.31 11.1422 156.859 10.9108C157.296 10.7598 157.681 10.6197 158.141 10.8353C158.761 11.2683 158.249 12.1531 158.125 12.3481L156.987 14.1629C156.76 14.6669 156.922 15.0787 157.631 14.8695C158.181 14.662 158.363 14.523 158.694 14.303C158.395 13.9717 158.108 13.6881 158.363 13.5893C158.44 13.6267 159.002 14.083 159.002 14.083C160.235 13.1645 161.764 11.806 163.29 9.96735C163.057 9.32477 162.966 9.18951 162.942 8.75443C162.683 7.56432 163.267 4.62952 166.312 4.63984C166.312 4.63984 166.774 3.23409 166.788 3.14827C166.921 2.50732 167.08 2.02606 166.822 1.04725C166.761 0.751762 166.745 0.514937 166.982 0.422594C167.569 0.473654 167.356 1.18794 167.524 1.55512C167.672 1.95708 167.795 2.24279 168.18 2.38728C170.727 3.45191 172.936 0.374795 174.446 0L174.47 0.1157ZM154.125 3.86961C153.054 5.11024 152.736 5.59312 152.259 6.46492C153.059 6.07329 154.643 4.53012 155.111 3.9109C155.679 3.28787 155.172 2.66158 154.125 3.86961ZM206.736 3.61812C205.765 4.472 205.3 5.26233 204.661 6.27318L205.645 5.59312C206.28 5.1173 206.606 4.81855 207.025 4.39704C208.383 2.96956 207.306 2.99835 206.736 3.61812ZM164.051 6.04722C163.345 7.03364 163.098 8.29544 163.585 9.55181C164.564 8.38018 165.679 6.51001 166.131 5.09883C165.363 5.10698 164.541 5.40246 164.051 6.04722ZM166.59 5.14283C165.973 6.84298 164.877 8.71152 163.93 9.84839L163.817 10.0325C164.117 10.5817 164.601 11.1748 165.129 11.4926C166.175 9.81689 167.06 7.91033 168.38 5.91251C168.056 5.45515 166.962 5.14934 166.59 5.14283ZM169.369 7.076L166.85 12.1265L166.713 12.3774C167.356 12.6501 168.341 12.8761 168.822 12.875C170.119 10.9223 170.227 8.77507 169.369 7.076ZM163.982 11.0852L163.476 10.4231C162.495 11.5274 161.423 12.838 159.461 14.2661C160.161 14.662 161.073 14.8255 161.914 14.6881C163.288 14.41 164.219 13.0303 164.879 11.9271L163.982 11.0852ZM174.567 11.5648C173.745 12.554 173.793 12.6007 173.29 13.4725C172.904 14.1612 172.993 14.6104 173.275 14.7555C173.533 14.844 173.823 14.7528 174.371 14.2242C175.03 13.3508 175.076 13.259 175.734 12.1564C176.46 10.7566 175.157 10.7854 174.567 11.5648ZM192.707 11.8772C192.896 10.7995 191.902 11.0325 190.659 12.8364C189.782 14.0901 190.112 16.1482 192.19 13.7799C192.428 13.4111 192.563 13.2509 192.757 12.862C193.233 11.9434 192.707 12.208 192.719 11.9912L192.707 11.8772ZM202.392 11.422C201.729 11.768 201.305 12.0113 200.512 13.3992C201.59 13.227 202.513 12.9793 203.085 12.2672C203.789 11.3019 203.009 11.0988 202.392 11.422ZM139.069 12.4986C133.651 14.8364 130.275 17.989 127.179 22.2166C125.975 24.1237 124.771 26.3752 125.965 27.3084C127.71 28.2866 130.957 26.9993 134.957 19.894C136.48 17.1628 138.048 14.5197 139.069 12.4986ZM205.277 18.9325C206.049 19.9961 206.186 20.0651 206.716 20.5985C207.083 20.9048 207.751 21.5805 208.198 21.8869C210.863 23.7082 211.918 21.4811 209.315 20.1172C208.371 19.6072 207.361 19.2226 205.277 18.9325ZM167.38 2.20694C167.337 2.82562 167.019 3.97173 166.77 4.70557C167.253 4.68167 168.148 5.08959 168.605 5.47742C169.517 4.20367 170.385 3.2015 171.057 2.51058C170.541 2.97228 168.278 3.50731 167.38 2.20694ZM145.317 11.7642C145.429 10.938 144.571 10.8728 143.4 12.7109C142.228 14.3867 142.831 15.9065 144.562 14.0222C144.837 13.655 144.95 13.5132 145.403 12.6892C145.785 11.8033 145.32 12.0955 145.33 11.8783L145.317 11.7642ZM147.828 1.50243C147.907 1.42259 148.034 1.53611 147.931 1.62791C147.874 1.60673 147.802 1.52851 147.828 1.50243Z" fill="#0000C1"/>
<path d="M40.4805 31.8489L38.9427 28.1557C38.8452 28.1664 38.7262 28.1664 38.6179 28.1664H37.3288V31.8489H36.4842V23.8228H38.661C40.4481 23.8228 41.3472 24.7112 41.3472 26.0327C41.3472 26.9425 40.8057 27.6898 39.7874 28.004L41.4231 31.8489H40.4805ZM38.6286 27.4732C39.9501 27.4732 40.4805 26.8669 40.4805 26.022C40.4805 25.1009 39.896 24.516 38.6503 24.516H37.3288V27.4732H38.6286Z" fill="black"/>
<path d="M42.2463 29.0023C42.2463 27.0851 43.156 26.045 44.5641 26.045C45.9936 26.045 46.6003 27.2362 46.6003 28.8505C46.6003 28.9481 46.6003 29.0237 46.5896 29.1213H43.0695C43.0584 30.7242 43.7299 31.374 44.629 31.374C45.2356 31.374 45.7446 30.9081 46.0371 30.3993L46.5354 30.8652C46.1454 31.493 45.4739 32.0023 44.5314 32.0023C43.1667 32.0023 42.2463 30.9949 42.2463 29.0023ZM45.7771 28.5471C45.7881 27.5831 45.4415 26.6627 44.4883 26.6627C43.5458 26.6627 43.1126 27.6587 43.1019 28.5471H45.7771Z" fill="black"/>
<path d="M48.2466 30.3666V26.8686H47.4234V26.1968H48.2466V24.6914L49.0481 24.2041V26.1968H50.3152V26.8686H49.0481V30.5183C49.0481 31.0384 49.2323 31.3412 49.6437 31.3412C49.882 31.3412 50.1421 31.2008 50.3262 31.0598L50.3479 31.7423C50.1314 31.872 49.8172 32.0023 49.4489 32.0023C48.6257 32.0023 48.2466 31.5257 48.2466 30.3666Z" fill="black"/>
<path d="M51.3984 24.2362C51.3984 23.922 51.6583 23.662 51.9612 23.662C52.2644 23.662 52.535 23.922 52.535 24.2362C52.535 24.5397 52.2644 24.8104 51.9612 24.8104C51.6583 24.8104 51.3984 24.5397 51.3984 24.2362ZM51.5718 26.1968H52.3727V31.8506H51.5718V26.1968Z" fill="black"/>
<path d="M54.2036 26.1968H55.0051V27.3017C55.5358 26.5431 56.0232 26.0778 56.7705 26.0778C56.9222 26.0778 57.0519 26.1099 57.0519 26.1099V26.9114C56.9436 26.89 56.8246 26.8686 56.6949 26.8686C56.1422 26.8686 55.6766 27.2255 55.0051 28.1787V31.8506H54.2036V26.1968Z" fill="black"/>
<path d="M57.7124 29.0023C57.7124 27.0851 58.6221 26.045 60.0306 26.045C61.4604 26.045 62.0667 27.2362 62.0667 28.8505C62.0667 28.9481 62.0667 29.0237 62.056 29.1213H58.5359C58.5252 30.7242 59.1963 31.374 60.0954 31.374C60.7017 31.374 61.2111 30.9081 61.5032 30.3993L62.0018 30.8652C61.6115 31.493 60.9403 32.0023 59.9978 32.0023C58.6335 32.0023 57.7124 30.9949 57.7124 29.0023ZM61.2438 28.5471C61.2545 27.5831 60.9076 26.6627 59.9544 26.6627C59.0125 26.6627 58.5793 27.6587 58.568 28.5471H61.2438Z" fill="black"/>
<path d="M63.5286 26.1968H64.3301V26.7924C64.7525 26.4133 65.2405 26.045 65.9444 26.045C66.54 26.045 66.9945 26.2723 67.2225 26.89C67.7532 26.4133 68.2298 26.045 68.9444 26.045C69.7566 26.045 70.3635 26.5002 70.3635 27.789V31.8506H69.562V27.767C69.562 27.3017 69.3669 26.6948 68.7385 26.6948C68.1757 26.6948 67.6556 27.1607 67.3522 27.4749V31.8506H66.54V27.767C66.54 27.3017 66.3448 26.6948 65.7165 26.6948C65.1536 26.6948 64.6335 27.1607 64.3301 27.4749V31.8506H63.5286V26.1968Z" fill="black"/>
<path d="M71.782 29.0023C71.782 27.0851 72.6918 26.045 74.1002 26.045C75.53 26.045 76.1363 27.2362 76.1363 28.8505C76.1363 28.9481 76.1363 29.0237 76.1256 29.1213H72.6055C72.5948 30.7242 73.266 31.374 74.165 31.374C74.7713 31.374 75.2807 30.9081 75.5728 30.3993L76.0715 30.8652C75.6811 31.493 75.01 32.0023 74.0675 32.0023C72.7031 32.0023 71.782 30.9949 71.782 29.0023ZM75.3134 28.5471C75.3241 27.5831 74.9772 26.6627 74.024 26.6627C73.0821 26.6627 72.649 27.6587 72.6376 28.5471H75.3134Z" fill="black"/>
<path d="M77.5983 26.1968H78.3997V26.7924C78.8222 26.4133 79.353 26.045 80.0461 26.045C80.7935 26.045 81.4653 26.4461 81.4653 27.8104V31.8506H80.6638V27.8325C80.6638 27.3231 80.4365 26.6948 79.8082 26.6948C79.256 26.6948 78.7032 27.1714 78.3997 27.4641V31.8506H77.5983V26.1968Z" fill="black"/>
<path d="M83.4472 30.3666V26.8686H82.6237V26.1968H83.4472V24.6914L84.2487 24.2041V26.1968H85.5161V26.8686H84.2487V30.5183C84.2487 31.0384 84.4326 31.3412 84.8443 31.3412C85.0829 31.3412 85.3423 31.2008 85.5268 31.0598L85.5482 31.7423C85.3316 31.872 85.0175 32.0023 84.6491 32.0023C83.8263 32.0023 83.4472 31.5257 83.4472 30.3666Z" fill="black"/>
</g>
<defs>
<clipPath id="clip0_4670_1024">
<rect width="211.152" height="32" fill="white"/>
</clipPath>
</defs>
</svg>
